<mxfile host="65bd71144e" modified="2021-01-10T17:37:19.338Z" agent="5.0 (Windows NT 10.0; Win64; x64) AppleWebKit/537.36 (KHTML, like Gecko) Code/1.52.0 Chrome/83.0.4103.122 Electron/9.3.5 Safari/537.36" etag="q7NV7x8xUgrFy3UnIDw0" version="13.10.0" type="embed">
    <diagram id="XmEUiJb7DyHUZifaucxD" name="Page-1">
        <mxGraphModel dx="690" dy="303" grid="1" gridSize="10" guides="1" tooltips="1" connect="1" arrows="1" fold="1" page="1" pageScale="1" pageWidth="827" pageHeight="1169" math="0" shadow="0">
            <root>
                <mxCell id="0"/>
                <mxCell id="1" parent="0"/>
                <mxCell id="5LFrI6kBniapI3u1lv_p-35" value="" style="whiteSpace=wrap;html=1;aspect=fixed;fillColor=none;dashed=1;strokeColor=#000045;strokeWidth=2;" parent="1" vertex="1">
                    <mxGeometry x="460" y="50" width="320" height="320" as="geometry"/>
                </mxCell>
                <mxCell id="5LFrI6kBniapI3u1lv_p-23" style="edgeStyle=orthogonalEdgeStyle;rounded=0;orthogonalLoop=1;jettySize=auto;html=1;exitX=0.5;exitY=1;exitDx=0;exitDy=0;exitPerimeter=0;" parent="1" source="5LFrI6kBniapI3u1lv_p-1" target="5LFrI6kBniapI3u1lv_p-5" edge="1">
                    <mxGeometry relative="1" as="geometry"/>
                </mxCell>
                <mxCell id="5LFrI6kBniapI3u1lv_p-1" value="" style="aspect=fixed;pointerEvents=1;shadow=0;dashed=0;html=1;strokeColor=none;labelPosition=center;verticalLabelPosition=bottom;verticalAlign=top;align=center;fillColor=#00188D;shape=mxgraph.azure.laptop" parent="1" vertex="1">
                    <mxGeometry x="110" y="130" width="50" height="30" as="geometry"/>
                </mxCell>
                <UserObject label="Web Application" placeholders="1" name="Variable" id="5LFrI6kBniapI3u1lv_p-3">
                    <mxCell style="text;html=1;strokeColor=none;fillColor=none;align=center;verticalAlign=middle;whiteSpace=wrap;overflow=hidden;fontStyle=5;fontSize=13;" parent="1" vertex="1">
                        <mxGeometry x="82.5" y="100" width="105" height="20" as="geometry"/>
                    </mxCell>
                </UserObject>
                <mxCell id="5LFrI6kBniapI3u1lv_p-24" style="edgeStyle=orthogonalEdgeStyle;rounded=0;orthogonalLoop=1;jettySize=auto;html=1;exitX=1;exitY=0.21;exitDx=0;exitDy=0;exitPerimeter=0;entryX=0;entryY=0.5;entryDx=0;entryDy=0;" parent="1" source="5LFrI6kBniapI3u1lv_p-5" target="5LFrI6kBniapI3u1lv_p-12" edge="1">
                    <mxGeometry relative="1" as="geometry"/>
                </mxCell>
                <mxCell id="5LFrI6kBniapI3u1lv_p-25" style="edgeStyle=orthogonalEdgeStyle;rounded=0;orthogonalLoop=1;jettySize=auto;html=1;exitX=0.65;exitY=0.5;exitDx=0;exitDy=0;exitPerimeter=0;entryX=0;entryY=0.75;entryDx=0;entryDy=0;" parent="1" source="5LFrI6kBniapI3u1lv_p-5" target="5LFrI6kBniapI3u1lv_p-13" edge="1">
                    <mxGeometry relative="1" as="geometry">
                        <Array as="points">
                            <mxPoint x="328" y="180"/>
                            <mxPoint x="500" y="180"/>
                            <mxPoint x="500" y="159"/>
                        </Array>
                    </mxGeometry>
                </mxCell>
                <mxCell id="5LFrI6kBniapI3u1lv_p-42" style="edgeStyle=orthogonalEdgeStyle;rounded=0;orthogonalLoop=1;jettySize=auto;html=1;exitX=1;exitY=0.8;exitDx=0;exitDy=0;exitPerimeter=0;entryX=0;entryY=0.5;entryDx=0;entryDy=0;fontSize=9;" parent="1" source="5LFrI6kBniapI3u1lv_p-5" target="5LFrI6kBniapI3u1lv_p-15" edge="1">
                    <mxGeometry relative="1" as="geometry"/>
                </mxCell>
                <mxCell id="5LFrI6kBniapI3u1lv_p-43" style="edgeStyle=orthogonalEdgeStyle;rounded=0;orthogonalLoop=1;jettySize=auto;html=1;exitX=0.5;exitY=1;exitDx=0;exitDy=0;exitPerimeter=0;entryX=0.5;entryY=0;entryDx=0;entryDy=0;fontSize=9;" parent="1" source="5LFrI6kBniapI3u1lv_p-5" target="5LFrI6kBniapI3u1lv_p-38" edge="1">
                    <mxGeometry relative="1" as="geometry"/>
                </mxCell>
                <mxCell id="5LFrI6kBniapI3u1lv_p-45" style="edgeStyle=orthogonalEdgeStyle;rounded=0;orthogonalLoop=1;jettySize=auto;html=1;exitX=0.65;exitY=0.5;exitDx=0;exitDy=0;exitPerimeter=0;entryX=0;entryY=0.5;entryDx=0;entryDy=0;fontSize=9;" parent="1" source="5LFrI6kBniapI3u1lv_p-5" target="5LFrI6kBniapI3u1lv_p-14" edge="1">
                    <mxGeometry relative="1" as="geometry">
                        <Array as="points">
                            <mxPoint x="328" y="200"/>
                            <mxPoint x="500" y="200"/>
                            <mxPoint x="500" y="240"/>
                        </Array>
                    </mxGeometry>
                </mxCell>
                <mxCell id="5LFrI6kBniapI3u1lv_p-5" value="" style="outlineConnect=0;dashed=0;verticalLabelPosition=bottom;verticalAlign=top;align=center;html=1;shape=mxgraph.aws3.api_gateway;fillColor=#D9A741;gradientColor=none;" parent="1" vertex="1">
                    <mxGeometry x="295" y="150" width="50" height="70" as="geometry"/>
                </mxCell>
                <mxCell id="5LFrI6kBniapI3u1lv_p-6" value="Application Architecture" style="text;strokeColor=none;fillColor=none;html=1;fontSize=24;fontStyle=1;verticalAlign=middle;align=center;" parent="1" vertex="1">
                    <mxGeometry x="240" width="100" height="40" as="geometry"/>
                </mxCell>
                <UserObject label="API Gateway" placeholders="1" name="Variable" id="5LFrI6kBniapI3u1lv_p-7">
                    <mxCell style="text;html=1;strokeColor=none;fillColor=none;align=center;verticalAlign=middle;whiteSpace=wrap;overflow=hidden;fontStyle=5;fontSize=13;" parent="1" vertex="1">
                        <mxGeometry x="243.25" y="75" width="150" height="20" as="geometry"/>
                    </mxCell>
                </UserObject>
                <mxCell id="5LFrI6kBniapI3u1lv_p-12" value="user details&lt;br&gt;" style="aspect=fixed;perimeter=ellipsePerimeter;html=1;align=center;shadow=0;dashed=0;fontColor=#4277BB;labelBackgroundColor=#ffffff;fontSize=12;spacingTop=3;image;image=img/lib/ibm/applications/microservice.svg;fontStyle=1" parent="1" vertex="1">
                    <mxGeometry x="520" y="65" width="54.8" height="40" as="geometry"/>
                </mxCell>
                <mxCell id="5LFrI6kBniapI3u1lv_p-13" value="payment" style="aspect=fixed;perimeter=ellipsePerimeter;html=1;align=center;shadow=0;dashed=0;fontColor=#4277BB;labelBackgroundColor=#ffffff;fontSize=12;spacingTop=3;image;image=img/lib/ibm/applications/microservice.svg;fontStyle=1" parent="1" vertex="1">
                    <mxGeometry x="574.8" y="130" width="54.8" height="40" as="geometry"/>
                </mxCell>
                <mxCell id="5LFrI6kBniapI3u1lv_p-14" value="product&lt;br&gt;" style="aspect=fixed;perimeter=ellipsePerimeter;html=1;align=center;shadow=0;dashed=0;fontColor=#4277BB;labelBackgroundColor=#ffffff;fontSize=12;spacingTop=3;image;image=img/lib/ibm/applications/microservice.svg;fontStyle=1" parent="1" vertex="1">
                    <mxGeometry x="580" y="220" width="54.8" height="40" as="geometry"/>
                </mxCell>
                <mxCell id="5LFrI6kBniapI3u1lv_p-15" value="shopping-cart" style="aspect=fixed;perimeter=ellipsePerimeter;html=1;align=center;shadow=0;dashed=0;fontColor=#4277BB;labelBackgroundColor=#ffffff;fontSize=12;spacingTop=3;image;image=img/lib/ibm/applications/microservice.svg;fontStyle=1" parent="1" vertex="1">
                    <mxGeometry x="520" y="290" width="54.8" height="40" as="geometry"/>
                </mxCell>
                <mxCell id="5LFrI6kBniapI3u1lv_p-16" value="" style="shape=image;html=1;verticalAlign=top;verticalLabelPosition=bottom;labelBackgroundColor=#ffffff;imageAspect=0;aspect=fixed;image=https://cdn2.iconfinder.com/data/icons/nodejs-1/128/nodejs-128.png" parent="1" vertex="1">
                    <mxGeometry x="295" y="90" width="50" height="50" as="geometry"/>
                </mxCell>
                <mxCell id="5LFrI6kBniapI3u1lv_p-21" value="" style="shape=image;html=1;verticalAlign=top;verticalLabelPosition=bottom;labelBackgroundColor=#ffffff;imageAspect=0;aspect=fixed;image=https://cdn4.iconfinder.com/data/icons/logos-3/600/React.js_logo-128.png" parent="1" vertex="1">
                    <mxGeometry x="120" y="70" width="30" height="30" as="geometry"/>
                </mxCell>
                <mxCell id="5LFrI6kBniapI3u1lv_p-28" value="" style="shape=image;html=1;verticalAlign=top;verticalLabelPosition=bottom;labelBackgroundColor=#ffffff;imageAspect=0;aspect=fixed;image=https://cdn4.iconfinder.com/data/icons/logos-brands-5/24/graphql-128.png" parent="1" vertex="1">
                    <mxGeometry x="634.8" y="233" width="30" height="30" as="geometry"/>
                </mxCell>
                <mxCell id="5LFrI6kBniapI3u1lv_p-29" value="" style="shape=image;html=1;verticalAlign=top;verticalLabelPosition=bottom;labelBackgroundColor=#ffffff;imageAspect=0;aspect=fixed;image=https://cdn2.iconfinder.com/data/icons/nodejs-1/128/nodejs-128.png" parent="1" vertex="1">
                    <mxGeometry x="710" y="80" width="50" height="50" as="geometry"/>
                </mxCell>
                <mxCell id="5LFrI6kBniapI3u1lv_p-33" value="" style="shape=image;html=1;verticalAlign=top;verticalLabelPosition=bottom;labelBackgroundColor=#ffffff;imageAspect=0;aspect=fixed;image=https://cdn1.iconfinder.com/data/icons/Futurosoft%20Icons%200.5.2/128x128/apps/Login-Manager.png" parent="1" vertex="1">
                    <mxGeometry x="250" y="150" width="30" height="30" as="geometry"/>
                </mxCell>
                <mxCell id="5LFrI6kBniapI3u1lv_p-36" value="Microservices" style="text;html=1;strokeColor=none;fillColor=none;align=center;verticalAlign=middle;whiteSpace=wrap;rounded=0;dashed=1;fontStyle=5;fontSize=14;" parent="1" vertex="1">
                    <mxGeometry x="700" y="60" width="40" height="20" as="geometry"/>
                </mxCell>
                <mxCell id="5LFrI6kBniapI3u1lv_p-38" value="Identity Provider" style="label;whiteSpace=wrap;html=1;image=img/clipart/Gear_128x128.png;strokeColor=#000045;strokeWidth=1;fillColor=none;fontSize=9;" parent="1" vertex="1">
                    <mxGeometry x="255" y="263" width="130" height="30" as="geometry"/>
                </mxCell>
                <mxCell id="nBLmN_1hwzeDXjjNzvg0-1" value="" style="aspect=fixed;html=1;points=[];align=center;image;fontSize=12;image=img/lib/mscae/Cache_Redis_Product.svg;" parent="1" vertex="1">
                    <mxGeometry x="580" y="295" width="35.71" height="30" as="geometry"/>
                </mxCell>
            </root>
        </mxGraphModel>
    </diagram>
</mxfile>